<svg xmlns="http://www.w3.org/2000/svg" viewBox="0 0 25.78964 28.83028"><title>icon-5</title><g id="Layer_2" data-name="Layer 2"><g id="Layer_1-2" data-name="Layer 1"><path d="M18.7025,19.31013a.56279.56279,0,1,0,.165.39811A.567.567,0,0,0,18.7025,19.31013Z" style="fill:#dedede"/><path d="M22.97418,4.27938H16.87425A15.67949,15.67949,0,0,0,13.24574.12331a.56328.56328,0,0,0-.70353.00006,15.67721,15.67721,0,0,0-3.62755,4.156H2.81546A2.81865,2.81865,0,0,0,0,7.09479V21.28473a2.81866,2.81866,0,0,0,2.81546,2.81546h7.26593v1.35272a2.81841,2.81841,0,0,0-2.76051,2.81428.56311.56311,0,0,0,.56309.56309H17.90973a.56311.56311,0,0,0,.56309-.56309,2.81841,2.81841,0,0,0-2.76051-2.81428V24.10019h7.26187a2.81865,2.81865,0,0,0,2.81546-2.81546V7.09479A2.81861,2.81861,0,0,0,22.97418,4.27938ZM12.894,1.29314a14.37365,14.37365,0,0,1,5.07274,10.99359v4.35614H7.82288V12.28538A14.37358,14.37358,0,0,1,12.894,1.29314Zm.00789,21.4264a19.06407,19.06407,0,0,1-3.027-4.37911l-.28662-.57137h6.62152v.00005l-.29326.5846A19.06366,19.06366,0,0,1,12.90192,22.71954Zm.00124,1.3807h1.683v1.35131H11.20757V24.10024h1.69559ZM2.81546,22.97406a1.69119,1.69119,0,0,1-1.68927-1.68928V20.27121H7.976a.56309.56309,0,0,0,0-1.12618H1.12619V7.09485A1.69119,1.69119,0,0,1,2.81546,5.40557H8.30021c-.02185.04443-.04477.08835-.06622.13294A15.63659,15.63659,0,0,0,6.95031,9.507a6.51906,6.51906,0,0,0-3.44889,5.76089V17.206a.56312.56312,0,0,0,.5631.56309H8.32837l.53989,1.07635a20.18387,20.18387,0,0,0,2.75313,4.1286H2.81546Zm3.88123-11.9629v5.63177H4.62761v-1.375A5.39431,5.39431,0,0,1,6.69669,11.01116Zm10.55348,16.693H8.54347a1.6926,1.6926,0,0,1,1.593-1.12641h5.52068A1.6925,1.6925,0,0,1,17.25017,27.70415ZM24.66346,19.145H20.39364a.56309.56309,0,1,0,0,1.12618h4.26982v1.01357a1.6912,1.6912,0,0,1-1.68928,1.68928H14.18154a20.1849,20.1849,0,0,0,2.74165-4.11536l.54659-1.08959h4.25535a.56311.56311,0,0,0,.56309-.56309V15.26791a6.519,6.519,0,0,0-3.44911-5.761A15.63551,15.63551,0,0,0,17.5552,5.53885c-.02151-.04471-.04448-.08874-.06644-.13328h5.48542a1.6912,1.6912,0,0,1,1.68928,1.68928V19.145Zm-5.57051-2.5021V11.01116A5.39449,5.39449,0,0,1,21.162,15.26791v1.375Z" style="fill:#dedede"/><path d="M12.89482,8.00452a3.26594,3.26594,0,1,0,3.26594,3.26594A3.26966,3.26966,0,0,0,12.89482,8.00452Zm0,5.40569a2.13975,2.13975,0,1,1,2.13975-2.13975A2.14219,2.14219,0,0,1,12.89482,13.41021Z" style="fill:#dedede"/><path d="M4.2795,7.32008H2.75915a.5631.5631,0,0,0,0,1.12619H4.2795a.5631.5631,0,1,0,0-1.12619Z" style="fill:#dedede"/><path d="M4.2795,9.57246H2.75915a.56309.56309,0,1,0,0,1.12618H4.2795a.56309.56309,0,1,0,0-1.12618Z" style="fill:#dedede"/><path d="M6.58982,7.48518a.56268.56268,0,1,0,.165.39811A.56472.56472,0,0,0,6.58982,7.48518Z" style="fill:#dedede"/></g></g></svg>