<svg xmlns="http://www.w3.org/2000/svg" viewBox="0 0 255.91804 65.24202"><title>logo-nayra</title><g id="Layer_2" data-name="Layer 2"><g id="Layer_1-2" data-name="Layer 1"><path d="M29.91765,21.98756a41.93627,41.93627,0,0,0-.63084-8.786,4.41481,4.41481,0,0,0-2.52312-3.33414,19.57625,19.57625,0,0,0-6.57832-.766q-4.6865,0-6.98369,1.44173a6.64407,6.64407,0,0,0-2.9738,4.2804,37.4157,37.4157,0,0,0-.67589,8.1553v23.6998H0V.72093H8.83106l.27038,6.03755h.72093a10.4927,10.4927,0,0,1,5.09142-5.09141A22.304,22.304,0,0,1,24.42073,0q6.30644,0,9.552,1.98249a9.77863,9.77863,0,0,1,4.37049,5.72213A36.86892,36.86892,0,0,1,39.46964,17.9325V46.67867h-9.552Z" style="fill:#04090d"/><path d="M61.41086,44.33572q-3.47-3.06245-3.46939-10.45308A22.48314,22.48314,0,0,1,59.20316,25.457a8.18947,8.18947,0,0,1,4.32544-4.41553,21.42716,21.42716,0,0,1,8.65089-1.39681q5.13633,0,15.58955.36046V18.02258q0-4.59563-.94614-6.53314a4.67431,4.67431,0,0,0-3.46939-2.47821,47.89569,47.89569,0,0,0-8.741-.54064q-2.97374,0-7.29924.27038t-6.398.63072v-8.02A97.41021,97.41021,0,0,1,77.94667,0Q86.4159,0,90.5175,1.84723a9.65583,9.65583,0,0,1,5.45188,5.63218Q97.321,11.26411,97.321,18.38305V46.67867h-8.741l-.36047-5.85738H87.679A10.28427,10.28427,0,0,1,81.55118,46.093a30.27983,30.27983,0,0,1-9.2816,1.3066Q64.87959,47.3996,61.41086,44.33572Zm21.22172-5.90243A6.24383,6.24383,0,0,0,86.147,35.77491q1.62208-2.70328,1.622-7.93V26.49331H74.61253a17.39462,17.39462,0,0,0-4.64087.45054,3.12607,3.12607,0,0,0-2.07257,1.80233,11.00464,11.00464,0,0,0-.5858,4.14514,9.36407,9.36407,0,0,0,.67588,4.10011,3.624,3.624,0,0,0,2.56817,1.75728,28.72883,28.72883,0,0,0,6.03768.45055A19.81528,19.81528,0,0,0,82.63258,38.43329Z" style="fill:#04090d"/><path d="M121.19982,64.431v-7.93q9.73234.27025,13.3368.27038,6.57689,0,9.41686-1.08139a5.533,5.533,0,0,0,3.60452-3.60452,32.16221,32.16221,0,0,0,.766-8.38064V40.82129h-.54063a9.79428,9.79428,0,0,1-4.91125,4.59582,23.06135,23.06135,0,0,1-9.32678,1.532q-6.30859,0-9.597-1.89241a9.35331,9.35331,0,0,1-4.41553-5.587,35.8955,35.8955,0,0,1-1.12644-10.09275V.72093h9.552v24.4206a39.1524,39.1524,0,0,0,.67589,8.78615,4.66294,4.66294,0,0,0,2.56816,3.37917,18.52837,18.52837,0,0,0,6.57832.811q4.68455,0,6.93878-1.48677a6.87028,6.87028,0,0,0,2.92863-4.32545,37.40674,37.40674,0,0,0,.67589-8.1553V.72093h9.552V41.36205q0,9.46189-1.39669,14.328a11.34766,11.34766,0,0,1-5.90243,7.209q-4.50711,2.34218-13.87756,2.343A134.38254,134.38254,0,0,1,121.19982,64.431Z" style="fill:#04090d"/><path d="M178.96112.72093h8.741l.36047,8.20021h.72093q1.62208-5.04565,5.27158-6.98369Q197.70463.00065,203.8324,0V9.91245q-6.129,0-9.41687,1.75715a9.53418,9.53418,0,0,0-4.59569,5.49693A32.75618,32.75618,0,0,0,188.5131,27.5747v19.104h-9.552Z" style="fill:#04090d"/><path d="M220.00787,44.33572q-3.47-3.06245-3.46939-10.45308a22.48334,22.48334,0,0,1,1.26169-8.42569,8.18949,8.18949,0,0,1,4.32545-4.41553,21.42713,21.42713,0,0,1,8.65089-1.39681q5.13633,0,15.58954.36046V18.02258q0-4.59563-.94614-6.53314a4.67427,4.67427,0,0,0-3.46939-2.47821,47.89549,47.89549,0,0,0-8.741-.54064q-2.97374,0-7.29925.27038t-6.398.63072v-8.02A97.41037,97.41037,0,0,1,236.54368,0q8.46922,0,12.57083,1.84723a9.65582,9.65582,0,0,1,5.45189,5.63218q1.35164,3.7847,1.35164,10.90364V46.67867h-8.741l-.36047-5.85738H246.276A10.2843,10.2843,0,0,1,240.1482,46.093a30.2799,30.2799,0,0,1-9.28161,1.3066Q223.47662,47.3996,220.00787,44.33572Zm21.22172-5.90243a6.24385,6.24385,0,0,0,3.51444-2.65838q1.62208-2.70328,1.622-7.93V26.49331h-13.1565a17.39457,17.39457,0,0,0-4.64087.45054,3.12607,3.12607,0,0,0-2.07257,1.80233,11.0046,11.0046,0,0,0-.58581,4.14514,9.3639,9.3639,0,0,0,.67589,4.10011,3.624,3.624,0,0,0,2.56816,1.75728,28.72894,28.72894,0,0,0,6.03769.45055A19.81521,19.81521,0,0,0,241.22959,38.43329Z" style="fill:#04090d"/></g></g></svg>