<svg xmlns="http://www.w3.org/2000/svg" viewBox="0 0 60.0431 84.74986"><title>icon-3</title><g id="Layer_2" data-name="Layer 2"><g id="Layer_1-2" data-name="Layer 1"><path d="M47.68744,4.74715A33.596,33.596,0,0,0,30.80368.01826c-.66615-.03064-15.64489-.5712-19.98978,7.34249A11.48543,11.48543,0,0,0,2.532,11.88661c-3.52958,4.8341-3.36746,12.74644.47625,23.51346L2.98338,44.0092c0,9.97814.98029,20.14163,8.08911,26.89254a35.23262,35.23262,0,0,0,3.59826,2.94087v9.44632a1.46092,1.46092,0,1,0,2.92184,0V75.89224q.252.16867.504.336l1.34982.90874c.55369.37542,1.09426.77423,1.63331,1.17305,2.33885,1.72977,4.75666,3.518,8.15914,3.518l.02053-.00152.02038.00152c3.40247,0,5.82028-1.78819,8.15914-3.518.539-.39882,1.07961-.79763,1.6333-1.17305l1.40385-.94224c.16213-.1096.32727-.222.4909-.33165v7.42582a1.46093,1.46093,0,1,0,2.92185,0V73.84261a35.56523,35.56523,0,0,0,3.59826-2.94087c7.14384-6.78306,8.1285-17.01238,8.1285-27.05769V38.42982a21.16272,21.16272,0,0,0,4.3666-11.43013C60.64718,18.2153,55.82184,9.48193,47.68744,4.74715ZM52.6941,37.948v5.89621c0,9.39363-.87507,18.91454-7.21841,24.93633a34.38318,34.38318,0,0,1-3.791,3.04306,1.0863,1.0863,0,0,0-.10084.05117c-.9175.65151-1.85536,1.27826-2.79188,1.90216l-1.401.9409c-.58585.3973-1.15857.821-1.72825,1.24325-2.04391,1.51058-3.97368,2.935-6.40328,2.94372-2.42942-.00875-4.35936-1.43314-6.40327-2.94372-.56969-.42222-1.14241-.846-1.72826-1.24325l-1.42153-.954a49.03944,49.03944,0,0,1-6.62229-4.98326c-6.62381-6.28627-7.179-16.08175-7.179-24.767l.02626-8.92765V35.0844l.01313-4.38865a7.2758,7.2758,0,0,1,.57272-2.8444,5.747,5.747,0,0,1,.54494-.98467c.06145-.09057.12862-.1739.19293-.26144a6.12341,6.12341,0,0,1,.53619-.61363c.07457-.07458.149-.15337.22929-.22491a6.30731,6.30731,0,0,1,.82389-.63265.53536.53536,0,0,0,.0468-.03216,6.49247,6.49247,0,0,1,.9978-.49679c.09343-.03653.18989-.06717.28636-.10084a6.7304,6.7304,0,0,1,.81817-.23232c.10808-.02492.21615-.04966.32726-.06717a7.25742,7.25742,0,0,1,1.014-.10084c.0468,0,.09343-.00876.13872-.00876a7.61908,7.61908,0,0,1,.90436.07307c.13148.016.26145.01161.39158.035a7.49129,7.49129,0,0,1,1.29729.34192c2.22943.80638,6.50984,1.76765,14.25265,1.76765s12.0234-.96127,14.25266-1.76765a6.66868,6.66868,0,0,1,8.54785,3.306,7.24987,7.24987,0,0,1,.57407,2.8444V37.948Z" style="fill:#04080d"/></g></g></svg>