<?xml version="1.0" encoding="utf-8"?>
<!-- Generator: Adobe Illustrator 22.1.0, SVG Export Plug-In . SVG Version: 6.00 Build 0)  -->
<svg version="1.1" id="Layer_1" xmlns="http://www.w3.org/2000/svg" xmlns:xlink="http://www.w3.org/1999/xlink" x="0px" y="0px"
	 viewBox="0 0 60 84.7" style="enable-background:new 0 0 60 84.7;" xml:space="preserve">
<style type="text/css">
	.st0{fill:#DEDEDE;}
</style>
<title>icon-3</title>
<path class="st0" d="M55.6,38.4c2.5-3.3,4.1-7.3,4.4-11.4c0.7-8.8-4.2-17.5-12.3-22.3c-5.1-3-10.9-4.7-16.9-4.7
	c-0.7,0-15.6-0.6-20,7.3c-3.3,0.3-6.3,1.9-8.3,4.5C-1,16.7-0.8,24.6,3,35.4L3,44c0,10,1,20.1,8.1,26.9c1.1,1.1,2.3,2,3.6,2.9v9.4
	c0,0.8,0.7,1.5,1.5,1.5c0.8,0,1.5-0.7,1.5-1.5c0,0,0,0,0,0v-7.4c0.2,0.1,0.3,0.2,0.5,0.3l1.3,0.9c0.6,0.4,1.1,0.8,1.6,1.2
	c2.3,1.7,4.8,3.5,8.2,3.5l0,0l0,0c3.4,0,5.8-1.8,8.2-3.5c0.5-0.4,1.1-0.8,1.6-1.2l0.1-0.1c0.6-0.3,1.2-0.6,1.8-1v7.2
	c0,0.8,0.6,1.5,1.5,1.5c0.8,0,1.5-0.6,1.5-1.5c0,0,0,0,0,0v-9.2c1.5-1.1,2.8-2.3,3.9-3.6c1.9-1.9,3.3-4,4.4-6.3
	c4.5-8.7,3.3-16.5,3.1-11.8c0,0.5-0.1,1-0.3,1.5c0.4-3.3,0.5-6.7,0.5-10.1V38.4z M37,70.8c-0.3,0.2-0.6,0.5-0.9,0.7
	c-1.6-0.9-3.8-1.4-6.3-1.4s-4.7,0.5-6.3,1.4c-0.3-0.3-0.6-0.5-0.9-0.7c-1.8-1.3-4.1-2.9-6.3-4.6c1.8-0.7,5.7-2.9,9.8-3.9
	c2-0.5,3.2-1,3.8-1.4c0.6,0.4,1.8,0.9,3.8,1.4c3.9,1,7.7,3.1,9.6,3.8C41.1,67.8,38.9,69.4,37,70.8z M44.4,65.3
	c-0.1-0.1-0.1-0.2-0.2-0.3C41.4,60.3,31,57.7,30,57.5h-0.1c-1,0.2-11.4,2.8-14.2,7.5c-0.1,0.2-0.2,0.3-0.3,0.5
	c-3.1-2.4-6.1-4.9-8.3-7.4C6.1,53.5,5.9,48.6,5.9,44l0-8.9v0l0-4.4c0-1,0.2-1.9,0.6-2.8c0.1-0.3,0.3-0.7,0.5-1
	c0.1-0.1,0.1-0.2,0.2-0.3c0.2-0.2,0.3-0.4,0.5-0.6c0.1-0.1,0.1-0.2,0.2-0.2c0.3-0.2,0.5-0.4,0.8-0.6c0,0,0,0,0,0
	c0.3-0.2,0.7-0.4,1-0.5c0.1,0,0.2-0.1,0.3-0.1c0.3-0.1,0.5-0.2,0.8-0.2c0.1,0,0.2,0,0.3-0.1c0.2,0,0.4,0,0.6-0.1
	c1.3,0.2,2.7,0.5,4.2,0.7c1.3,0.4,3,0.7,5.3,1c9.9,2,21.7,5,31.1,9.1l0.2-0.4v3.4h0v5.9c0,5.5-0.3,11.1-1.9,16
	C49,61.7,46.7,63.6,44.4,65.3z"/>
</svg>
