<svg xmlns="http://www.w3.org/2000/svg" viewBox="0 0 29.72006 29.72006"><title>icon-4</title><g id="Layer_2" data-name="Layer 2"><g id="Layer_1-2" data-name="Layer 1"><path d="M26.81771,4.41146h-.23219V2.438a2.438,2.438,0,0,0-4.87595,0V4.41146h-2.109a.58047.58047,0,0,0,0,1.16094h2.109V6.8882a.58047.58047,0,0,0,1.16094,0V4.35352h2.55407v9.93341H22.87051v-3.258a.58047.58047,0,1,0-1.16094,0V14.8674a.5801.5801,0,0,0,.08063.29511l1.3406,2.27092H11.70616a.58047.58047,0,0,0,0,1.16094H26.46943a.58047.58047,0,0,0,0-1.16094H25.1643l1.34059-2.27092a.58059.58059,0,0,0,.08063-.29511V5.5724h.23219a1.74338,1.74338,0,0,1,1.74141,1.7414V19.73586H4.29548v-4.288h11.6094a1.9758,1.9758,0,0,0,1.97359-1.9736V1.9736A1.9758,1.9758,0,0,0,15.90488,0H1.9736A1.97581,1.97581,0,0,0,0,1.9736V13.47427a1.97581,1.97581,0,0,0,1.9736,1.9736H3.13454v6.49378A2.90565,2.90565,0,0,0,6.03689,24.844H13.527v1.39446a2.90539,2.90539,0,0,0-2.8457,2.90113.58053.58053,0,0,0,.58047.58047H21.597a.58053.58053,0,0,0,.58047-.58047,2.90539,2.90539,0,0,0-2.8457-2.90113V24.844h7.48592a2.90565,2.90565,0,0,0,2.90235-2.90235V7.3138A2.90564,2.90564,0,0,0,26.81771,4.41146ZM24.9883,15.44787l-.84075,1.42418-.84075-1.42418Zm.43628-12.25529H22.87051V2.438a1.277,1.277,0,0,1,2.55407,0ZM1.16094,1.9736a.81354.81354,0,0,1,.81266-.81266H15.90488a.81354.81354,0,0,1,.81265.81266V4.17938H1.16094ZM1.9736,14.28693a.81354.81354,0,0,1-.81266-.81266V5.34032H16.71753v8.134a.81354.81354,0,0,1-.81265.81266ZM20.91712,28.55912h-8.9754A1.74476,1.74476,0,0,1,13.58393,27.398h5.691A1.74477,1.74477,0,0,1,20.91712,28.55912ZM14.688,26.237V24.844H18.1708v1.393Zm13.87114-4.29536a1.74339,1.74339,0,0,1-1.74141,1.74141H6.03689a1.74338,1.74338,0,0,1-1.74141-1.74141V20.8968H28.55912Z" style="fill:#dedede"/><path d="M14.8674,2.08969H9.46166a.58047.58047,0,1,0,0,1.16094H14.8674a.58047.58047,0,0,0,0-1.16094Z" style="fill:#dedede"/><path d="M5.00829,2.25977a.58016.58016,0,1,0,.17008.41039A.58515.58515,0,0,0,5.00829,2.25977Z" style="fill:#dedede"/><path d="M3.02709,2.25977a.58.58,0,1,0,.17014.41039A.58461.58461,0,0,0,3.02709,2.25977Z" style="fill:#dedede"/><path d="M6.9888,2.25977a.58.58,0,1,0,.17014.41039A.58369.58369,0,0,0,6.9888,2.25977Z" style="fill:#dedede"/><path d="M4.18763,9.46305,5.76621,7.88447a.58047.58047,0,1,0-.8209-.82091L2.95622,9.0526a.58045.58045,0,0,0,0,.8209l1.98909,1.9891a.58049.58049,0,1,0,.8209-.821Z" style="fill:#dedede"/><path d="M14.9222,9.05254l-1.989-1.989a.58049.58049,0,0,0-.821.8209L13.69079,9.463,12.1122,11.04158a.58049.58049,0,1,0,.8209.821l1.9891-1.98909a.58046.58046,0,0,0,0-.82091Z" style="fill:#dedede"/><path d="M10.63758,6.57307a.58043.58043,0,0,0-.79455.20635L7.03454,11.55849a.58047.58047,0,1,0,1.0009.58819l2.80849-4.77907A.58044.58044,0,0,0,10.63758,6.57307Z" style="fill:#dedede"/><path d="M22.70038,8.56774a.58.58,0,1,0,.17013.41039A.58215.58215,0,0,0,22.70038,8.56774Z" style="fill:#dedede"/><path d="M9.13665,17.43343H9.046a.58047.58047,0,0,0,0,1.16094h.09061a.58047.58047,0,0,0,0-1.16094Z" style="fill:#dedede"/></g></g></svg>