<svg xmlns="http://www.w3.org/2000/svg" viewBox="0 0 10 92.44531"><title>Asset 3</title><g id="Layer_2" data-name="Layer 2"><g id="Layer_1-2" data-name="Layer 1"><polygon points="0 0 0 21.889 0 22.372 0 22.693 0 24.647 10 31.084 10 29.13 10 28.325 10 0.1 0 0" style="fill:#ef3e07"/><polygon points="1.75 28.597 0 27.47 0 27.953 0 30.229 10 36.666 10 33.907 1.75 28.597 1.75 28.597" style="fill:#ef3e07"/><polygon points="0 33.534 0 35.81 10 42.247 10 39.488 0 33.051 0 33.534" style="fill:#ef3e07"/><polygon points="1.75 39.759 0 38.633 0 39.116 0 41.392 10 47.828 10 45.07 1.75 39.759 1.75 39.759" style="fill:#ef3e07"/><polygon points="1.75 45.341 0 44.214 0 44.697 0 46.973 10 53.41 10 50.651 1.75 45.341 1.75 45.341" style="fill:#ef3e07"/><polygon points="0 50.278 0 52.554 10 58.991 10 56.232 0 49.796 0 50.278" style="fill:#ef3e07"/><polygon points="1.75 56.469 0 55.343 0 55.826 0 58.102 10 64.538 10 61.78 1.75 56.469 1.75 56.469" style="fill:#ef3e07"/><polygon points="0 61.407 0 63.683 10 70.12 10 67.361 0 60.924 0 61.407" style="fill:#ef3e07"/><polygon points="1.75 67.632 0 66.506 0 66.988 0 69.264 10 75.701 10 72.942 1.75 67.632 1.75 67.632" style="fill:#ef3e07"/><polygon points="0 72.57 0 74.846 10 81.283 10 78.524 0 72.087 0 72.57" style="fill:#ef3e07"/><polygon points="1.75 78.795 0 77.668 0 78.151 0 80.427 10 86.864 10 84.105 1.75 78.795 1.75 78.795" style="fill:#ef3e07"/><polygon points="0 83.732 0 86.009 10 92.445 10 89.687 0 83.25 0 83.732" style="fill:#ef3e07"/></g></g></svg>