<svg xmlns="http://www.w3.org/2000/svg" viewBox="0 0 48.26257 68.87627"><title>icon-2</title><g id="Layer_2" data-name="Layer 2"><g id="Layer_1-2" data-name="Layer 1"><path d="M47.72,19.813a10.3279,10.3279,0,0,0-4.09807-5.55359c.00915-.14125.02179-.279.02179-.42011C44.3119,1.76082,37.30156.09288,37.002.02737a1.13734,1.13734,0,0,0-.94474.21241,1.15012,1.15012,0,0,0-.44662.86094c-.00914.23649-.32944,5.7878-8.03659,5.7878H11.50326A6.89519,6.89519,0,0,0,4.61574,13.776c0,.16183.01372.32137.02529.48213A10.32827,10.32827,0,0,0,.54175,19.813C-.74051,23.92825.25818,28.95734,3.48738,34.75658c-.0253.69453-.05045,1.38786-.05045,2.10755,0,7.84033.77027,15.82635,6.356,21.12973a27.95358,27.95358,0,0,0,2.85832,2.33368v7.40058a1.14788,1.14788,0,1,0,2.29575,0V61.914c.11824.07923.23648.16075.35473.23877l1.10321.74162c.435.295.85973.60845,1.28334.92067,1.83783,1.36028,3.73768,2.76536,6.41117,2.76536s4.57333-1.40508,6.41117-2.76415c.42361-.31343.8483-.62674,1.28334-.92174l1.102-.74041c.039-.02529.07923-.05394.117-.07923.101-.06766.20085-.13318.30079-.20084v5.85438a1.14788,1.14788,0,1,0,2.29575,0V60.2841a27.69282,27.69282,0,0,0,2.7963-2.2901c5.58575-5.30338,6.356-13.2894,6.356-21.12973,0-.68068-.02529-1.33621-.04709-1.99388C47.9955,29.02272,49.01034,23.9569,47.72,19.813ZM36.82509,56.32822a28.48282,28.48282,0,0,1-3.35645,2.65519c-.60952.427-1.22375.84372-1.84133,1.25576l-1.12151.75305c-.46141.31343-.91139.64624-1.36029.978-1.60941,1.18931-3.13032,2.31418-5.04631,2.31418s-3.4369-1.125-5.04631-2.31418c-.4489-.33173-.89888-.66467-1.36029-.978l-1.086-.729c-.63938-.42818-1.27769-.85972-1.90779-1.30055a28.41169,28.41169,0,0,1-3.32551-2.63447c-5.20465-4.94058-5.6409-12.63738-5.6409-19.46409,0-6.81756,1.16173-12.39752,3.45411-16.61034a6.90735,6.90735,0,0,0,1.13523.30079l.03565.00579a6.87336,6.87336,0,0,0,1.14559.10331H36.75716a7.00066,7.00066,0,0,0,1.11465-.09874c.01372-.00228.02757-.00349.0413-.00686a6.71452,6.71452,0,0,0,1.10886-.28464c2.28552,4.21174,3.44376,9.78484,3.44376,16.59083C42.466,43.69084,42.02987,51.38764,36.82509,56.32822Z" style="fill:#04080d"/></g></g></svg>