<svg xmlns="http://www.w3.org/2000/svg" viewBox="0 0 57.80213 65.90709"><title>icon-1</title><g id="Layer_2" data-name="Layer 2"><g id="Layer_1-2" data-name="Layer 1"><path d="M50.52892,10.75485C39.20184-.57223,27.03536-.01507,26.59031.01157c-.17568,0-17.66926.171-22.505,14.94091l-.10515.30167C1.527,22.27254-3.41634,39.743,3.6449,50.33489l5.78028,9.24854a1.15558,1.15558,0,0,0,2.13529-.64969,43.38865,43.38865,0,0,1,.297-7.20925,16.48413,16.48413,0,0,0,2.64277,3.22888A29.80887,29.80887,0,0,0,17.37305,57.291v7.46009a1.156,1.156,0,1,0,2.312,0V58.89667q.19768.13187.3919.26359l1.07634.72253c.4381.297.86475.61275,1.29011.92717,1.852,1.36991,3.76647,2.785,6.45892,2.785s4.60689-1.41508,6.45892-2.785c.42549-.31441.852-.63012,1.29011-.92717L37.76,59.13825l.01042-.00695c.13758-.09253.274-.18379.41159-.27516V64.751a1.156,1.156,0,1,0,2.312,0v-7.497a27.73013,27.73013,0,0,0,2.81613-2.30635,17.5721,17.5721,0,0,0,3.99182-5.748c6.20113-4.87627,9.69707-10.62423,10.37688-17.09692C58.87912,20.67728,50.93008,11.2196,50.52892,10.75485ZM45.39138,47.81928a1.12989,1.12989,0,0,0-.29138.645,15.40878,15.40878,0,0,1-3.38152,4.8069,28.9655,28.9655,0,0,1-3.39876,2.68782q-.933.64847-1.87738,1.27981l-1.089.72948c-.46243.31442-.91559.64969-1.36643.98381-1.62191,1.19886-3.15372,2.33066-5.08438,2.33066s-3.46235-1.1318-5.08322-2.33066c-.452-.33412-.90517-.66938-1.36759-.98381l-1.02422-.68791c-.0982-.06589-.19768-.13411-.297-.20116-.43811-.2937-.87518-.59306-1.311-.89358a32.126,32.126,0,0,1-3.73867-2.91909c-5.04268-4.72595-5.66354-12.87395-5.696-16.15714a2.17705,2.17705,0,0,1,.53643-1.45781v.00116c12.884-14.72585,25.87467-16.8506,28.09774-17.113a.65384.65384,0,0,1,.32832.504c.13411,1.34571-2.45667,4.07394-4.24962,5.49481a1.15579,1.15579,0,0,0,.7179,2.06232,15.36227,15.36227,0,0,0,9.93169-3.70984,35.6428,35.6428,0,0,1,1.652,10.77675C47.39939,38.36508,47.19129,43.469,45.39138,47.81928Z" style="fill:#04080d"/></g></g></svg>